<?xml version="1.0" encoding="UTF-8" standalone="no" ?>
<!DOCTYPE svg PUBLIC "-//W3C//DTD SVG 1.1//EN" "http://www.w3.org/Graphics/SVG/1.1/DTD/svg11.dtd">
<svg xmlns="http://www.w3.org/2000/svg" xmlns:xlink="http://www.w3.org/1999/xlink" version="1.1" width="1080" height="1080" viewBox="0 0 1080 1080" xml:space="preserve">
<rect x="0" y="0" width="100%" height="100%" fill="transparent"></rect>
<g transform="matrix(1 0 0 1 540 540)" id="b96cd8eb-eeb1-4032-bb21-e2d86ceca911"  >
<rect style="stroke: none; stroke-width: 1; stroke-dasharray: none; stroke-linecap: butt; stroke-dashoffset: 0; stroke-linejoin: miter; stroke-miterlimit: 4; fill: rgb(255,255,255); fill-rule: nonzero; opacity: 1; visibility: hidden;" vector-effect="non-scaling-stroke"  x="-540" y="-540" rx="0" ry="0" width="1080" height="1080" />
</g>
<g transform="matrix(1 0 0 1 540 540)" id="c0dc972e-a9a5-4131-9ac2-eb0d204bcd1a"  >
</g>
<g transform="matrix(3.6 0 0 3.6 540 540)"  >
<g style=""   >
		<g transform="matrix(1 0 0 1 -1.4 -84.5)"  >
<ellipse style="stroke: none; stroke-width: 1; stroke-dasharray: none; stroke-linecap: butt; stroke-dashoffset: 0; stroke-linejoin: miter; stroke-miterlimit: 4; fill: rgb(0,0,0); fill-rule: nonzero; opacity: 1;" vector-effect="non-scaling-stroke"  cx="0" cy="0" rx="35" ry="64.4" />
</g>
		<g transform="matrix(1 0 0 1 -0.15 19.1)"  >
<path style="stroke: none; stroke-width: 1; stroke-dasharray: none; stroke-linecap: butt; stroke-dashoffset: 0; stroke-linejoin: miter; stroke-miterlimit: 4; fill: rgb(0,0,0); fill-rule: nonzero; opacity: 1;" vector-effect="non-scaling-stroke"  transform=" translate(-149.85, -169.1)" d="M 299.3 212.1 C 299.3 212.1 271.8 206 271.8 190.6 C 271.3 175.2 280.7 168.2 280.7 168.2 C 280.7 168.2 279.8 166.29999999999998 280.2 164 C 280.7 161.7 288.09999999999997 161.7 288.09999999999997 161.7 C 288.09999999999997 161.7 287.2 159.39999999999998 287.59999999999997 157 C 287.59999999999997 155.1 290.9 152.8 290.9 152.8 C 290.9 152.8 286.7 152.3 285.79999999999995 150.9 C 284.4 149.5 284.4 147.20000000000002 284.4 147.20000000000002 C 284.4 147.20000000000002 254.09999999999997 151.4 255.89999999999998 137.4 C 257.7 123.4 277.4 124.30000000000001 277.4 124.30000000000001 L 276.5 116.80000000000001 C 276.5 116.80000000000001 267.2 116.30000000000001 264.8 114.00000000000001 C 263.90000000000003 113.10000000000001 255.9 91.10000000000002 246.10000000000002 73.9 C 234.90000000000003 54.300000000000004 222.3 39.400000000000006 222.3 39.400000000000006 L 213 42.2 L 214.4 61.300000000000004 C 214.4 61.300000000000004 227.5 64.60000000000001 230.70000000000002 74.80000000000001 C 235.4 89.70000000000002 221.8 136.4 205.00000000000003 142.5 C 191.00000000000003 147.6 175.10000000000002 143.4 175.10000000000002 143.4 L 174.60000000000002 152.70000000000002 L 191.40000000000003 166.70000000000002 L 177.90000000000003 173.20000000000002 L 173.70000000000005 166.20000000000002 L 168.60000000000005 174.60000000000002 L 162.50000000000006 174.60000000000002 L 157.80000000000007 180.20000000000002 L 149.90000000000006 181.10000000000002 L 142.00000000000006 179.70000000000002 L 137.30000000000007 174.10000000000002 L 131.20000000000007 174.10000000000002 L 125.60000000000008 165.70000000000002 L 121.90000000000008 173.20000000000002 L 109.30000000000008 167.10000000000002 L 126.10000000000008 153.10000000000002 L 125.60000000000008 143.8 C 125.60000000000008 143.8 109.70000000000007 148.5 95.70000000000007 142.9 C 78.90000000000008 136.8 65.40000000000008 90.2 70.00000000000007 75.2 C 73.30000000000007 64.9 86.30000000000007 61.7 86.30000000000007 61.7 L 87.20000000000007 43 L 77.90000000000008 40.2 C 77.90000000000008 40.2 65.30000000000008 55.1 54.10000000000008 74.7 C 44.30000000000008 91.5 36.40000000000008 113.4 35.40000000000008 114.80000000000001 C 33.10000000000008 116.70000000000002 23.700000000000077 117.60000000000001 23.700000000000077 117.60000000000001 L 22.80000000000008 125.10000000000001 C 22.80000000000008 125.10000000000001 42.40000000000008 124.60000000000001 44.30000000000008 138.20000000000002 C 46.20000000000008 152.20000000000002 15.800000000000082 148.00000000000003 15.800000000000082 148.00000000000003 C 15.800000000000082 148.00000000000003 15.800000000000082 148.90000000000003 14.400000000000082 150.80000000000004 C 13.000000000000082 152.20000000000005 9.300000000000082 152.70000000000005 9.300000000000082 152.70000000000005 C 9.300000000000082 152.70000000000005 12.600000000000083 154.60000000000005 12.600000000000083 156.90000000000003 C 12.600000000000083 158.80000000000004 12.100000000000083 161.60000000000002 12.100000000000083 161.60000000000002 C 12.100000000000083 161.60000000000002 19.600000000000083 161.60000000000002 20.000000000000085 163.90000000000003 C 20.500000000000085 166.20000000000005 19.500000000000085 168.10000000000002 19.500000000000085 168.10000000000002 C 19.500000000000085 168.10000000000002 28.400000000000084 175.10000000000002 28.400000000000084 190.50000000000003 C 27.900000000000084 205.40000000000003 0.40000000000008384 212.00000000000003 0.40000000000008384 212.00000000000003 L 29.300000000000082 207.30000000000004 L 38.20000000000008 219.00000000000003 L 32.60000000000008 224.10000000000002 L 71.30000000000008 220.40000000000003 C 71.30000000000008 220.40000000000003 60.60000000000008 229.70000000000005 56.400000000000084 231.10000000000002 C 52.20000000000008 232.50000000000003 46.10000000000008 233.40000000000003 46.10000000000008 233.40000000000003 C 46.10000000000008 233.40000000000003 50.80000000000008 238.10000000000002 46.60000000000008 242.70000000000005 C 42.90000000000008 246.40000000000003 34.50000000000008 250.20000000000005 34.50000000000008 250.20000000000005 L 62.50000000000008 238.50000000000006 L 82.60000000000008 238.50000000000006 C 82.60000000000008 238.50000000000006 70.00000000000009 244.60000000000005 66.70000000000007 247.40000000000006 C 63.40000000000008 250.70000000000007 60.60000000000007 257.20000000000005 60.60000000000007 257.20000000000005 L 48.00000000000007 257.70000000000005 C 48.00000000000007 257.70000000000005 63.40000000000007 264.70000000000005 64.30000000000007 271.20000000000005 C 64.80000000000007 277.70000000000005 63.40000000000007 281.00000000000006 63.40000000000007 281.00000000000006 L 73.20000000000007 288.50000000000006 C 73.20000000000007 288.50000000000006 68.50000000000007 275.90000000000003 70.40000000000008 273.1000000000001 C 72.30000000000008 270.30000000000007 81.10000000000008 275.00000000000006 85.30000000000008 280.1000000000001 C 91.80000000000008 287.1000000000001 92.30000000000008 298.80000000000007 92.30000000000008 298.80000000000007 C 92.30000000000008 298.80000000000007 93.20000000000009 292.70000000000005 91.80000000000008 283.9000000000001 C 90.40000000000008 273.2000000000001 76.90000000000008 269.4000000000001 72.20000000000007 265.7000000000001 C 68.00000000000007 262.4000000000001 68.50000000000007 256.4000000000001 70.80000000000007 251.7000000000001 C 75.00000000000007 244.2000000000001 87.60000000000007 238.6000000000001 87.60000000000007 238.6000000000001 L 88.50000000000007 242.8000000000001 L 93.20000000000007 239.1000000000001 C 93.20000000000007 239.1000000000001 102.10000000000008 252.6000000000001 101.60000000000008 257.3000000000001 C 101.60000000000008 262.0000000000001 99.30000000000008 265.2000000000001 99.70000000000007 269.0000000000001 C 100.20000000000007 272.7000000000001 105.80000000000007 279.7000000000001 105.80000000000007 279.7000000000001 C 105.80000000000007 279.7000000000001 103.90000000000006 274.6000000000001 104.40000000000006 269.0000000000001 C 104.90000000000006 263.4000000000001 106.70000000000006 257.3000000000001 112.80000000000007 257.8000000000001 C 120.30000000000007 258.3000000000001 133.80000000000007 269.90000000000015 137.10000000000008 276.5000000000001 C 140.4000000000001 283.0000000000001 140.4000000000001 295.2000000000001 141.80000000000007 295.2000000000001 C 143.20000000000005 295.2000000000001 145.10000000000008 282.6000000000001 146.50000000000006 280.3000000000001 C 147.90000000000006 278.0000000000001 149.80000000000007 278.0000000000001 149.80000000000007 278.0000000000001 C 149.80000000000007 278.0000000000001 151.70000000000007 278.0000000000001 153.10000000000008 280.3000000000001 C 154.50000000000009 282.60000000000014 156.4000000000001 295.2000000000001 157.80000000000007 295.2000000000001 C 159.20000000000005 295.2000000000001 159.20000000000007 283.1000000000001 162.50000000000006 276.5000000000001 C 165.80000000000007 270.0000000000001 179.30000000000007 258.3000000000001 186.80000000000007 257.8000000000001 C 192.40000000000006 257.3000000000001 194.70000000000007 263.40000000000015 195.20000000000007 269.0000000000001 C 195.20000000000007 274.60000000000014 193.80000000000007 279.7000000000001 193.80000000000007 279.7000000000001 C 193.80000000000007 279.7000000000001 199.40000000000006 273.2000000000001 199.90000000000006 269.0000000000001 C 200.40000000000006 265.3000000000001 198.50000000000006 262.0000000000001 198.00000000000006 257.3000000000001 C 198.00000000000006 252.60000000000014 206.40000000000006 239.10000000000014 206.40000000000006 239.10000000000014 L 211.10000000000005 242.80000000000013 L 212.00000000000006 238.60000000000014 C 212.00000000000006 238.60000000000014 224.10000000000005 244.20000000000013 228.80000000000007 251.70000000000013 C 231.60000000000008 255.90000000000012 231.60000000000008 262.40000000000015 227.40000000000006 265.70000000000016 C 222.70000000000007 269.40000000000015 209.20000000000007 273.20000000000016 207.80000000000007 283.90000000000015 C 206.40000000000006 292.8000000000001 207.30000000000007 298.8000000000001 207.30000000000007 298.8000000000001 C 207.30000000000007 298.8000000000001 207.80000000000007 287.10000000000014 214.30000000000007 280.10000000000014 C 219.00000000000006 275.0000000000001 227.40000000000006 270.3000000000001 229.20000000000007 273.10000000000014 C 231.00000000000009 275.90000000000015 226.40000000000006 288.5000000000001 226.40000000000006 288.5000000000001 L 236.20000000000007 281.0000000000001 C 236.20000000000007 281.0000000000001 234.30000000000007 277.7000000000001 235.30000000000007 271.2000000000001 C 235.80000000000007 264.7000000000001 251.60000000000008 257.7000000000001 251.60000000000008 257.7000000000001 L 239.00000000000009 257.7000000000001 C 239.00000000000009 257.7000000000001 235.70000000000007 250.7000000000001 232.9000000000001 247.9000000000001 C 229.60000000000008 244.60000000000008 217.00000000000009 239.00000000000009 217.00000000000009 239.00000000000009 L 237.10000000000008 239.00000000000009 L 265.1000000000001 250.70000000000007 C 265.1000000000001 250.70000000000007 256.7000000000001 247.00000000000009 253.00000000000009 243.20000000000007 C 248.8000000000001 239.00000000000009 253.50000000000009 233.90000000000006 253.50000000000009 233.90000000000006 C 253.50000000000009 233.90000000000006 247.4000000000001 233.00000000000006 243.20000000000007 231.60000000000005 C 239.00000000000009 229.70000000000005 228.30000000000007 220.40000000000006 228.30000000000007 220.40000000000006 L 267.00000000000006 224.10000000000005 L 261.40000000000003 219.00000000000006 L 270.3 207.30000000000007 L 299.3 212.1 z M 79.1 212.5 L 46.39999999999999 215.8 L 39.39999999999999 206.5 L 81.89999999999999 207.9 L 79.1 212.5 z M 142.1 262.9 C 141.2 270.79999999999995 141.6 275 141.6 275 C 141.6 275 136 268 129.5 261.9 C 121.1 254.89999999999998 115 254.39999999999998 115 254.39999999999998 C 115 254.39999999999998 122.5 250.7 131.3 250.7 C 140.10000000000002 250.7 144.8 252.1 144.8 252.1 C 144.8 252.1 142.5 257.3 142.1 262.9 z M 171 262.5 C 164 268.1 158.9 275.6 158.9 275.6 C 158.9 275.6 159.4 271.40000000000003 158.4 263.5 C 157.9 257.4 155.6 252.8 155.6 252.8 C 155.6 252.8 160.29999999999998 251.4 169.1 251.4 C 177.9 251.4 185.4 255.1 185.4 255.1 C 185.4 255.1 179.9 255 171 262.5 z M 254.1 215.8 L 221 212.5 L 218.2 208.3 L 260.7 206.9 L 254.1 215.8 z" stroke-linecap="round" />
</g>
</g>
</g>
<g transform="matrix(3.6 0 0 3.6 540 540)"  >
<g style=""   >
		<g transform="matrix(1 0 0 1 44.6 -0.1)"  >
<path style="stroke: none; stroke-width: 1; stroke-dasharray: none; stroke-linecap: butt; stroke-dashoffset: 0; stroke-linejoin: miter; stroke-miterlimit: 4; fill: rgb(0,0,0); fill-rule: nonzero; opacity: 1;" vector-effect="non-scaling-stroke"  transform=" translate(-194.6, -149.9)" d="M 150 106.4 C 150 106.4 156.6 106.4 158 106.9 C 159.4 107.4 160.3 111.10000000000001 163.2 112.10000000000001 C 165.5 113.00000000000001 198.79999999999998 113.50000000000001 198.39999999999998 115.80000000000001 C 198.39999999999998 118.10000000000001 196.09999999999997 118.60000000000001 195.59999999999997 119.60000000000001 C 195.09999999999997 121.00000000000001 196.99999999999997 122.9 192.29999999999995 123.4 C 187.59999999999997 124.30000000000001 186.69999999999996 120.10000000000001 186.69999999999996 120.10000000000001 C 186.69999999999996 120.10000000000001 177.79999999999995 118.7 171.19999999999996 120.60000000000001 C 167.89999999999995 121.50000000000001 165.59999999999997 124.80000000000001 163.19999999999996 127.2 C 160.89999999999995 129.5 158.99999999999997 130.5 158.49999999999997 131.4 C 157.59999999999997 133.70000000000002 157.99999999999997 137 158.99999999999997 137.5 C 159.89999999999998 138 163.19999999999996 132.8 164.59999999999997 131.9 C 165.09999999999997 131.4 168.79999999999995 130.5 173.49999999999997 130 C 175.39999999999998 129.5 177.29999999999998 130.5 179.09999999999997 130 C 182.89999999999998 129.5 186.09999999999997 128.1 188.89999999999998 127.2 C 194.49999999999997 125.8 199.2 124.9 199.2 124.4 C 200.1 123.5 199.7 120.2 199.7 120.2 C 199.7 120.2 201.6 119.3 201.6 118.3 C 201.6 117.3 200.7 116.39999999999999 200.2 116 C 199.7 115.5 200.2 111.3 198.79999999999998 109.9 C 197.39999999999998 108.5 175.79999999999998 106.10000000000001 174.89999999999998 104.7 C 173.99999999999997 103.3 176.29999999999998 101.9 175.39999999999998 98.10000000000001 C 174.49999999999997 94.30000000000001 173.49999999999997 85.4 173.49999999999997 85.4 C 173.49999999999997 85.4 173.49999999999997 71.80000000000001 172.99999999999997 69.9 C 172.49999999999997 68 172.49999999999997 69 171.59999999999997 67.60000000000001 C 170.69999999999996 66.2 170.19999999999996 56.80000000000001 170.19999999999996 56.80000000000001 C 170.19999999999996 56.80000000000001 172.49999999999997 57.30000000000001 173.99999999999997 56.30000000000001 C 175.39999999999998 55.40000000000001 176.79999999999998 50.70000000000001 176.79999999999998 50.70000000000001 C 176.79999999999998 50.70000000000001 180.99999999999997 50.20000000000001 181.49999999999997 49.80000000000001 C 181.99999999999997 49.30000000000001 182.39999999999998 46.500000000000014 182.39999999999998 45.60000000000001 C 182.39999999999998 44.20000000000001 181.49999999999997 43.70000000000001 181.49999999999997 41.80000000000001 C 181.49999999999997 39.90000000000001 181.99999999999997 35.70000000000001 181.99999999999997 35.20000000000001 C 182.49999999999997 35.20000000000001 180.59999999999997 34.70000000000001 180.09999999999997 33.80000000000001 C 179.59999999999997 32.90000000000001 178.19999999999996 30.50000000000001 178.19999999999996 30.50000000000001 C 178.19999999999996 30.50000000000001 183.39999999999995 34.30000000000001 185.19999999999996 31.40000000000001 C 186.99999999999997 28.500000000000007 186.09999999999997 24.40000000000001 186.09999999999997 24.40000000000001 C 186.09999999999997 24.40000000000001 182.79999999999995 18.30000000000001 182.79999999999995 16.90000000000001 C 182.79999999999995 15.500000000000007 183.69999999999996 9.40000000000001 183.69999999999996 9.40000000000001 L 185.09999999999997 8.000000000000009 C 185.09999999999997 8.000000000000009 182.79999999999995 4.700000000000009 182.79999999999995 3.8000000000000087 C 182.79999999999995 2.900000000000009 184.19999999999996 8.881784197001252e-15 185.59999999999997 8.881784197001252e-15 C 186.99999999999997 8.881784197001252e-15 187.49999999999997 3.8000000000000087 187.49999999999997 3.8000000000000087 C 187.49999999999997 3.8000000000000087 187.99999999999997 7.1000000000000085 188.39999999999998 9.90000000000001 C 188.89999999999998 12.70000000000001 193.59999999999997 20.20000000000001 193.59999999999997 20.20000000000001 C 193.59999999999997 20.20000000000001 192.19999999999996 28.20000000000001 193.59999999999997 29.60000000000001 C 194.99999999999997 31.000000000000007 196.89999999999998 27.300000000000008 197.79999999999995 29.10000000000001 C 198.69999999999996 31.000000000000007 196.39999999999995 30.500000000000007 196.89999999999995 34.30000000000001 C 197.39999999999995 38.100000000000016 199.69999999999996 37.60000000000001 199.69999999999996 37.60000000000001 C 199.69999999999996 37.60000000000001 199.19999999999996 41.80000000000001 199.19999999999996 44.60000000000001 C 199.69999999999996 47.400000000000006 201.09999999999997 49.80000000000001 201.09999999999997 49.80000000000001 C 201.09999999999997 49.80000000000001 191.69999999999996 57.30000000000001 193.59999999999997 59.60000000000001 C 195.49999999999997 61.900000000000006 199.19999999999996 61.900000000000006 201.59999999999997 60.50000000000001 C 203.89999999999998 59.60000000000001 208.19999999999996 54.900000000000006 208.19999999999996 54.900000000000006 C 208.19999999999996 54.900000000000006 210.09999999999997 56.800000000000004 209.59999999999997 57.2 C 209.09999999999997 57.7 207.69999999999996 59.1 208.69999999999996 61.400000000000006 C 209.69999999999996 63.70000000000001 212.89999999999995 64.2 212.89999999999995 64.2 C 212.89999999999995 64.2 211.49999999999994 68.9 210.59999999999994 69.8 C 209.69999999999993 70.7 207.29999999999993 70.3 207.29999999999993 70.3 C 207.29999999999993 70.3 205.89999999999992 71.7 204.99999999999991 72.2 C 204.0999999999999 72.7 200.79999999999993 73.10000000000001 200.79999999999993 73.10000000000001 L 201.69999999999993 75.9 C 201.69999999999993 75.9 196.99999999999994 78.2 199.39999999999992 79.7 C 203.5999999999999 82.5 208.29999999999993 77.8 208.29999999999993 77.8 C 208.29999999999993 77.8 209.69999999999993 78.7 211.09999999999994 78.3 C 212.49999999999994 77.8 212.49999999999994 76.39999999999999 212.49999999999994 76.39999999999999 L 215.29999999999995 76.39999999999999 C 215.29999999999995 76.39999999999999 212.99999999999994 81.99999999999999 213.89999999999995 82.99999999999999 C 214.79999999999995 84.39999999999999 219.99999999999994 80.69999999999999 219.49999999999994 83.89999999999999 C 218.59999999999994 86.69999999999999 209.19999999999993 86.19999999999999 206.39999999999995 89.49999999999999 C 203.59999999999994 92.79999999999998 205.89999999999995 96.09999999999998 207.29999999999995 96.09999999999998 C 208.69999999999996 96.59999999999998 225.59999999999997 87.69999999999997 226.99999999999994 90.89999999999998 C 228.89999999999995 94.19999999999997 223.19999999999993 96.49999999999997 224.19999999999993 99.29999999999998 C 225.09999999999994 102.09999999999998 232.19999999999993 96.99999999999999 232.19999999999993 100.69999999999999 C 232.19999999999993 103.99999999999999 222.79999999999993 108.19999999999999 224.19999999999993 110.99999999999999 C 225.59999999999994 113.79999999999998 227.99999999999994 111.89999999999999 227.99999999999994 111.89999999999999 C 227.99999999999994 111.89999999999999 232.19999999999993 113.8 232.69999999999993 114.69999999999999 C 233.19999999999993 115.6 227.99999999999994 116.6 227.99999999999994 116.6 L 227.49999999999994 118.5 L 231.69999999999993 119 C 231.69999999999993 119 234.99999999999994 122.7 235.49999999999994 124.2 C 235.49999999999994 125.60000000000001 222.39999999999995 128.4 222.39999999999995 129.8 C 221.89999999999995 131.20000000000002 222.89999999999995 131.70000000000002 222.89999999999995 131.70000000000002 C 222.89999999999995 131.70000000000002 219.59999999999994 131.20000000000002 218.19999999999996 131.70000000000002 C 216.79999999999995 132.20000000000002 212.59999999999997 135.4 212.59999999999997 135.4 C 212.59999999999997 135.4 205.09999999999997 133.5 202.29999999999995 134 C 199.49999999999994 134.5 194.79999999999995 136.3 194.79999999999995 136.3 L 198.59999999999997 137.20000000000002 L 194.79999999999995 141.00000000000003 C 194.79999999999995 141.00000000000003 200.39999999999995 142.90000000000003 204.19999999999996 142.40000000000003 C 207.99999999999997 141.90000000000003 214.99999999999997 137.20000000000005 216.89999999999995 136.30000000000004 C 218.79999999999995 135.80000000000004 225.29999999999995 135.80000000000004 225.29999999999995 135.80000000000004 C 225.29999999999995 135.80000000000004 236.09999999999997 128.30000000000004 238.39999999999995 130.20000000000005 C 240.69999999999996 132.50000000000006 237.89999999999995 139.10000000000005 237.89999999999995 141.50000000000006 C 237.89999999999995 143.90000000000006 238.79999999999995 149.50000000000006 238.79999999999995 149.50000000000006 C 238.79999999999995 149.50000000000006 223.29999999999995 149.50000000000006 219.09999999999997 150.90000000000006 C 215.29999999999995 151.80000000000007 212.49999999999997 153.70000000000007 212.49999999999997 153.70000000000007 L 207.79999999999998 153.70000000000007 L 206.39999999999998 158.90000000000006 C 206.39999999999998 158.90000000000006 191.89999999999998 158.90000000000006 192.29999999999998 159.80000000000007 C 192.79999999999998 160.70000000000007 196.49999999999997 160.70000000000007 196.99999999999997 161.70000000000007 C 197.89999999999998 162.60000000000008 196.99999999999997 164.00000000000009 196.99999999999997 164.00000000000009 L 191.79999999999998 164.00000000000009 L 180.49999999999997 166.3000000000001 L 197.39999999999998 167.7000000000001 C 197.39999999999998 167.7000000000001 196.89999999999998 174.7000000000001 195.49999999999997 175.7000000000001 C 194.09999999999997 176.7000000000001 190.79999999999998 176.2000000000001 189.89999999999998 175.2000000000001 C 188.99999999999997 174.2000000000001 187.59999999999997 173.3000000000001 187.59999999999997 173.3000000000001 C 187.59999999999997 173.3000000000001 174.89999999999998 181.3000000000001 174.49999999999997 184.6000000000001 C 173.99999999999997 187.40000000000012 179.69999999999996 184.1000000000001 182.89999999999998 187.40000000000012 C 184.29999999999998 189.30000000000013 183.39999999999998 191.20000000000013 182.39999999999998 192.6000000000001 C 181.89999999999998 194.0000000000001 182.39999999999998 194.5000000000001 181.49999999999997 195.40000000000012 C 180.09999999999997 197.70000000000013 172.59999999999997 198.20000000000013 173.99999999999997 201.5000000000001 C 177.29999999999998 204.80000000000013 178.69999999999996 200.1000000000001 180.59999999999997 201.0000000000001 C 182.49999999999997 201.90000000000012 180.09999999999997 209.90000000000012 180.09999999999997 209.90000000000012 C 180.09999999999997 209.90000000000012 166.99999999999997 213.70000000000013 168.79999999999995 216.90000000000012 C 170.59999999999994 220.1000000000001 174.39999999999995 214.6000000000001 177.19999999999996 216.40000000000012 C 179.99999999999997 217.80000000000013 178.09999999999997 226.20000000000013 178.09999999999997 226.20000000000013 C 178.09999999999997 226.20000000000013 172.89999999999998 225.70000000000013 172.89999999999998 227.60000000000014 C 172.89999999999998 229.50000000000014 178.49999999999997 226.70000000000013 178.99999999999997 229.00000000000014 C 179.49999999999997 231.30000000000015 177.09999999999997 231.80000000000015 177.09999999999997 231.80000000000015 C 177.09999999999997 231.80000000000015 177.09999999999997 240.20000000000016 177.59999999999997 241.20000000000016 C 178.09999999999997 242.10000000000016 180.39999999999998 242.10000000000016 180.39999999999998 242.10000000000016 C 180.39999999999998 242.10000000000016 178.99999999999997 245.40000000000018 175.2 247.70000000000016 C 171.89999999999998 249.60000000000016 170.5 245.40000000000015 168.6 246.80000000000015 C 166.7 248.20000000000016 171.9 252.00000000000014 171.9 252.00000000000014 C 171.9 252.00000000000014 170 254.80000000000015 169.1 259.5000000000001 C 168.2 264.2000000000001 168.2 271.2000000000001 168.2 271.2000000000001 C 168.2 271.2000000000001 163 275.4000000000001 161.6 279.2000000000001 C 160.2 283.0000000000001 157.79999999999998 292.3000000000001 156.9 293.7000000000001 C 155.5 295.1000000000001 149.9 299.8000000000001 149.9 299.8000000000001 L 149.9 106.4 z" stroke-linecap="round" />
</g>
		<g transform="matrix(1 0 0 1 17.29 -58.05)"  >
<path style="stroke: none; stroke-width: 1; stroke-dasharray: none; stroke-linecap: butt; stroke-dashoffset: 0; stroke-linejoin: miter; stroke-miterlimit: 4; fill: rgb(0,0,0); fill-rule: nonzero; opacity: 1;" vector-effect="non-scaling-stroke"  transform=" translate(-167.29, -91.95)" d="M 170.2 102.2 L 163.6 101.3 C 163.6 101.3 164.5 99 164.5 97.1 C 164.5 94.8 163.6 92.89999999999999 165 90.1 C 166.4 87.3 167.8 81.69999999999999 167.8 81.69999999999999 C 167.8 81.69999999999999 168.70000000000002 91.49999999999999 170.10000000000002 94.79999999999998 C 172 98 170.2 102.2 170.2 102.2 z" stroke-linecap="round" />
</g>
		<g transform="matrix(1 0 0 1 50.01 79.5)"  >
<path style="stroke: none; stroke-width: 1; stroke-dasharray: none; stroke-linecap: butt; stroke-dashoffset: 0; stroke-linejoin: miter; stroke-miterlimit: 4; fill: rgb(0,0,0); fill-rule: nonzero; opacity: 1;" vector-effect="non-scaling-stroke"  transform=" translate(-200.01, -229.5)" d="M 201.6 215.2 C 201.6 215.2 192.7 217.5 191.29999999999998 219.39999999999998 C 189.89999999999998 221.29999999999998 189.89999999999998 230.2 189.89999999999998 230.2 C 189.89999999999998 230.2 193.7 231.1 199.29999999999998 235.79999999999998 C 204.89999999999998 240.49999999999997 209.1 243.79999999999998 209.1 243.79999999999998 C 209.1 243.79999999999998 211 237.2 209.6 234.39999999999998 C 208.2 231.59999999999997 206.79999999999998 230.2 206.79999999999998 230.2 C 206.79999999999998 230.2 208.7 226.89999999999998 207.29999999999998 223.2 C 206.3 219.4 201.6 215.2 201.6 215.2 z" stroke-linecap="round" />
</g>
		<g transform="matrix(1 0 0 1 61.07 122.39)"  >
<path style="stroke: none; stroke-width: 1; stroke-dasharray: none; stroke-linecap: butt; stroke-dashoffset: 0; stroke-linejoin: miter; stroke-miterlimit: 4; fill: rgb(0,0,0); fill-rule: nonzero; opacity: 1;" vector-effect="non-scaling-stroke"  transform=" translate(-211.07, -272.39)" d="M 203.4 258.3 C 203.4 258.3 201.1 258.8 197.3 263 C 193.10000000000002 267.2 194 268.6 194 268.6 C 194 268.6 200.6 274.20000000000005 205.3 276.1 C 210.00000000000003 278 211.9 277 215.60000000000002 279.40000000000003 C 219.30000000000004 281.80000000000007 225.90000000000003 288.3 227.8 286.00000000000006 C 229.70000000000002 283.20000000000005 225 281.30000000000007 218.4 274.70000000000005 C 212.3 267.7 203.4 258.3 203.4 258.3 z" stroke-linecap="round" />
</g>
		<g transform="matrix(1 0 0 1 99.5 78.75)"  >
<path style="stroke: none; stroke-width: 1; stroke-dasharray: none; stroke-linecap: butt; stroke-dashoffset: 0; stroke-linejoin: miter; stroke-miterlimit: 4; fill: rgb(0,0,0); fill-rule: nonzero; opacity: 1;" vector-effect="non-scaling-stroke"  transform=" translate(-249.5, -228.75)" d="M 199.2 191.3 C 199.2 191.3 209 174 215.1 171.60000000000002 C 221.2 169.20000000000005 230.1 174.40000000000003 231 173.00000000000003 C 231.9 171.60000000000002 227.7 169.30000000000004 227.7 169.30000000000004 L 234.7 165.50000000000003 C 234.7 165.50000000000003 235.2 167.40000000000003 238.39999999999998 168.30000000000004 C 241.7 169.20000000000005 250.59999999999997 166.90000000000003 250.59999999999997 166.90000000000003 L 237.49999999999997 173.00000000000003 C 237.49999999999997 173.00000000000003 244.49999999999997 174.40000000000003 248.79999999999998 177.20000000000002 C 252.99999999999997 179.50000000000003 255.79999999999998 183.3 255.79999999999998 183.3 L 263.29999999999995 184.70000000000002 C 263.29999999999995 184.70000000000002 262.79999999999995 188.00000000000003 258.59999999999997 188.00000000000003 C 254.39999999999998 188.00000000000003 235.59999999999997 186.60000000000002 235.59999999999997 186.60000000000002 C 235.59999999999997 186.60000000000002 228.59999999999997 190.8 230.39999999999998 192.20000000000002 C 232.29999999999998 193.60000000000002 242.59999999999997 191.70000000000002 242.59999999999997 191.70000000000002 L 236.49999999999997 195.9 L 230.39999999999998 198.20000000000002 C 230.39999999999998 198.20000000000002 234.2 202.00000000000003 239.29999999999998 202.9 C 244.49999999999997 203.8 251.99999999999997 201 251.99999999999997 201 C 251.99999999999997 201 253.89999999999998 204.8 255.79999999999998 207.1 C 257.7 209.4 279.2 222.1 279.2 222.1 C 279.2 222.1 278.3 225.9 271.7 225.4 C 265.59999999999997 224.9 249.7 218.8 248.29999999999998 219.3 C 246.89999999999998 219.8 244.99999999999997 220.70000000000002 244.99999999999997 220.70000000000002 C 244.99999999999997 220.70000000000002 243.59999999999997 215.50000000000003 242.19999999999996 214.60000000000002 C 240.79999999999995 213.70000000000002 236.59999999999997 214.10000000000002 236.59999999999997 214.10000000000002 L 225.29999999999995 205.70000000000002 C 225.29999999999995 205.70000000000002 221.99999999999994 216.00000000000003 233.29999999999995 223.50000000000003 C 244.09999999999997 231.00000000000003 253.89999999999995 227.30000000000004 253.89999999999995 227.30000000000004 C 253.89999999999995 227.30000000000004 263.29999999999995 237.10000000000005 268.4 239.50000000000003 C 273.59999999999997 241.80000000000004 287.59999999999997 248.90000000000003 285.7 249.80000000000004 C 285.2 250.30000000000004 283.4 250.70000000000005 282.4 250.30000000000004 C 280.09999999999997 249.40000000000003 278.2 246.10000000000005 274.9 245.10000000000005 C 270.2 243.70000000000005 265.5 245.60000000000005 265.5 245.60000000000005 L 261.3 243.70000000000005 L 248.20000000000002 244.20000000000005 L 243.50000000000003 247.50000000000006 L 235.10000000000002 245.60000000000005 C 235.10000000000002 245.60000000000005 235.60000000000002 252.20000000000005 239.8 255.00000000000006 C 244 257.80000000000007 248.20000000000002 256.90000000000003 248.20000000000002 256.90000000000003 C 248.20000000000002 256.90000000000003 266.5 277.50000000000006 278.70000000000005 283.6 C 290.90000000000003 289.20000000000005 299.80000000000007 292 299.80000000000007 292 C 299.80000000000007 292 279.20000000000005 288.2 271.20000000000005 284 C 257.6 276.5 250.60000000000005 270.4 243.10000000000005 265.2 C 235.60000000000005 260 220.10000000000005 257.2 220.10000000000005 257.2 C 220.10000000000005 257.2 220.60000000000005 246.89999999999998 219.60000000000005 243.1 C 218.70000000000005 239.4 213.00000000000006 235.1 213.00000000000006 235.1 C 213.00000000000006 235.1 213.90000000000006 229.9 213.90000000000006 227.6 C 213.90000000000006 225.29999999999998 211.60000000000005 224.79999999999998 211.60000000000005 224.79999999999998 L 210.70000000000005 220.1 C 210.70000000000005 220.1 204.60000000000005 211.2 204.60000000000005 207 C 204.60000000000005 202.8 205.50000000000006 198.1 205.50000000000006 198.1 C 205.50000000000006 198.1 206.90000000000006 191.5 204.60000000000005 191.5 C 203 191.3 199.2 191.3 199.2 191.3 z" stroke-linecap="round" />
</g>
		<g transform="matrix(1 0 0 1 112.65 -98.9)"  >
<path style="stroke: none; stroke-width: 1; stroke-dasharray: none; stroke-linecap: butt; stroke-dashoffset: 0; stroke-linejoin: miter; stroke-miterlimit: 4; fill: rgb(0,0,0); fill-rule: nonzero; opacity: 1;" vector-effect="non-scaling-stroke"  transform=" translate(-262.65, -51.1)" d="M 241.4 75 C 241.4 75 244.70000000000002 75.5 248.9 78.3 C 253.1 81.1 253.1 85.8 257.3 85.8 C 261.5 85.8 269 74.1 271.8 72.7 C 275.1 71.3 277 74.10000000000001 277 74.10000000000001 L 286.4 59.10000000000001 L 281.2 56.30000000000001 C 281.2 56.30000000000001 274.59999999999997 63.80000000000001 272.3 63.30000000000001 C 269.5 63.30000000000001 266.2 62.80000000000001 266.2 62.80000000000001 C 266.2 62.80000000000001 261 75.9 257.8 76.4 C 254.5 76.9 257.3 64.7 258.7 61.400000000000006 C 260.09999999999997 58.60000000000001 269 57.60000000000001 269 57.60000000000001 L 277.9 40.30000000000001 C 277.9 40.30000000000001 275.09999999999997 44.10000000000001 272.7 45.90000000000001 C 270.4 47.80000000000001 259.09999999999997 45.40000000000001 256.3 46.40000000000001 C 254 47.30000000000001 249.70000000000002 48.30000000000001 249.70000000000002 48.30000000000001 C 249.70000000000002 48.30000000000001 249.70000000000002 44.10000000000001 251.10000000000002 40.30000000000001 C 252.50000000000003 36.500000000000014 258.1 33.30000000000001 258.6 30.900000000000013 C 259.1 28.500000000000014 258.6 25.700000000000014 260 23.900000000000013 C 261.9 22.500000000000014 267 16.400000000000013 267 16.400000000000013 C 267 16.400000000000013 258.6 20.200000000000014 256.7 22.500000000000014 C 254.79999999999998 24.800000000000015 253.89999999999998 30.500000000000014 252 34.20000000000002 C 249.7 38.40000000000002 238.9 42.600000000000016 238.9 42.600000000000016 C 238.9 42.600000000000016 242.70000000000002 48.20000000000002 243.6 50.600000000000016 C 245 52.90000000000001 241.7 55.80000000000002 241.7 55.80000000000002 C 241.7 55.80000000000002 244.5 60.50000000000002 245 63.80000000000002 C 245.6 67 241.4 75 241.4 75 z" stroke-linecap="round" />
</g>
		<g transform="matrix(1 0 0 1 86.25 -89.05)"  >
<polygon style="stroke: none; stroke-width: 1; stroke-dasharray: none; stroke-linecap: butt; stroke-dashoffset: 0; stroke-linejoin: miter; stroke-miterlimit: 4; fill: rgb(0,0,0); fill-rule: nonzero; opacity: 1;" vector-effect="non-scaling-stroke"  points="0.45,12.65 4.25,5.65 1.85,-0.05 -1.85,-12.65 -1.85,-4.25 -4.25,2.35 " />
</g>
		<g transform="matrix(1 0 0 1 80.65 -116.95)"  >
<polygon style="stroke: none; stroke-width: 1; stroke-dasharray: none; stroke-linecap: butt; stroke-dashoffset: 0; stroke-linejoin: miter; stroke-miterlimit: 4; fill: rgb(0,0,0); fill-rule: nonzero; opacity: 1;" vector-effect="non-scaling-stroke"  points="-3.35,8.65 5.65,-8.65 2.75,-7.25 -5.65,0.25 " />
</g>
		<g transform="matrix(1 0 0 1 -44.65 -0.05)"  >
<path style="stroke: none; stroke-width: 1; stroke-dasharray: none; stroke-linecap: butt; stroke-dashoffset: 0; stroke-linejoin: miter; stroke-miterlimit: 4; fill: rgb(0,0,0); fill-rule: nonzero; opacity: 1;" vector-effect="non-scaling-stroke"  transform=" translate(-105.35, -149.95)" d="M 150 106.4 C 150 106.4 143.4 106.4 142 106.9 C 140.6 107.4 139.7 111.10000000000001 136.8 112.10000000000001 C 134.5 113.00000000000001 101.20000000000002 113.50000000000001 101.60000000000001 115.80000000000001 C 101.60000000000001 118.10000000000001 103.9 118.60000000000001 104.4 119.60000000000001 C 104.9 121.00000000000001 103 122.9 107.7 123.4 C 112.4 124.30000000000001 113.3 120.10000000000001 113.3 120.10000000000001 C 113.3 120.10000000000001 122.2 118.7 128.8 120.60000000000001 C 132.10000000000002 121.50000000000001 134.4 124.80000000000001 136.8 127.2 C 139.10000000000002 129.5 141 130.5 141.5 131.4 C 142.4 133.70000000000002 142 137 141 137.5 C 139.6 137.5 136.8 132.8 135.4 131.9 C 134.9 131.4 131.20000000000002 130.5 126.5 130 C 124.6 129.5 122.7 130.5 120.9 130 C 117.10000000000001 129.5 113.9 128.1 111.10000000000001 127.2 C 105.50000000000001 125.8 100.80000000000001 124.9 100.80000000000001 124.4 C 99.9 123.5 100.30000000000001 120.2 100.30000000000001 120.2 C 100.30000000000001 120.2 98.4 119.3 98.4 118.3 C 98.4 116.89999999999999 99.30000000000001 116.39999999999999 99.80000000000001 116 C 100.30000000000001 115.5 99.80000000000001 111.3 101.20000000000002 109.9 C 102.60000000000002 108.5 124.20000000000002 106.10000000000001 125.10000000000002 104.7 C 126.00000000000003 103.3 123.70000000000002 101.9 124.60000000000002 98.10000000000001 C 125.50000000000003 94.30000000000001 126.50000000000003 85.4 126.50000000000003 85.4 C 126.50000000000003 85.4 126.50000000000003 71.80000000000001 127.00000000000003 69.9 C 127.50000000000003 68 127.50000000000003 69 128.40000000000003 67.60000000000001 C 129.30000000000004 66.20000000000002 129.80000000000004 56.80000000000001 129.80000000000004 56.80000000000001 C 129.80000000000004 56.80000000000001 127.90000000000003 56.30000000000001 126.50000000000004 55.40000000000001 C 125.10000000000005 54.500000000000014 123.70000000000005 49.80000000000001 123.70000000000005 49.80000000000001 C 123.70000000000005 49.80000000000001 119.50000000000004 49.30000000000001 119.00000000000004 48.90000000000001 C 118.50000000000004 48.40000000000001 118.10000000000004 45.600000000000016 118.10000000000004 44.70000000000001 C 118.10000000000004 43.30000000000001 119.00000000000004 42.80000000000001 119.00000000000004 40.90000000000001 C 119.00000000000004 39.000000000000014 118.50000000000004 34.80000000000001 118.50000000000004 34.30000000000001 C 118.00000000000004 34.30000000000001 119.90000000000005 33.80000000000001 120.40000000000005 32.90000000000001 C 120.90000000000005 32.000000000000014 121.80000000000005 30.600000000000012 121.80000000000005 30.600000000000012 C 121.80000000000005 30.600000000000012 116.60000000000005 34.40000000000001 114.80000000000005 31.50000000000001 C 113.00000000000006 28.60000000000001 113.90000000000005 24.50000000000001 113.90000000000005 24.50000000000001 C 113.90000000000005 24.50000000000001 117.20000000000005 18.400000000000013 117.20000000000005 17.00000000000001 C 117.20000000000005 15.600000000000009 115.80000000000004 9.50000000000001 115.80000000000004 9.50000000000001 L 114.4 8 C 114.4 8 116.7 4.7 116.7 3.8 C 117.2 2.9 115.8 0.09999999999999964 114.4 0.09999999999999964 C 113.5 0.09999999999999964 112.5 3.8999999999999995 112.5 3.8999999999999995 C 112.5 3.8999999999999995 112 7 111.6 9.8 C 111.1 12.600000000000001 106.39999999999999 20.1 106.39999999999999 20.1 C 106.39999999999999 20.1 107.8 28.1 106.39999999999999 29.5 C 104.99999999999999 30.9 103.1 27.2 102.19999999999999 29 C 101.29999999999998 30.9 103.6 30.4 103.1 34.2 C 102.6 38.00000000000001 100.3 37.5 100.3 37.5 C 100.3 37.5 100.8 41.7 100.8 44.5 C 100.8 47.3 98.5 49.2 98.5 49.2 C 98.5 49.2 107.9 56.7 106 59 C 104.1 61.3 100.4 61.3 98 59.9 C 95.7 59 91.4 54.3 91.4 54.3 C 91.4 54.3 89.5 56.199999999999996 90 56.599999999999994 C 90.5 57.099999999999994 91.9 58.49999999999999 90.9 60.8 C 90 63.099999999999994 86.7 63.599999999999994 86.7 63.599999999999994 C 86.7 63.599999999999994 88.10000000000001 68.3 89 69.19999999999999 C 89.9 70.1 92.3 69.69999999999999 92.3 69.69999999999999 C 92.3 69.69999999999999 93.7 71.1 94.6 71.6 C 95.5 72.1 98.8 72.5 98.8 72.5 L 98 75.5 C 98 75.5 102.7 77.8 100.3 79.3 C 96.1 82.1 91.39999999999999 77.39999999999999 91.39999999999999 77.39999999999999 C 91.39999999999999 77.39999999999999 89.99999999999999 78.3 88.6 77.89999999999999 C 87.19999999999999 77.39999999999999 87.19999999999999 75.99999999999999 87.19999999999999 75.99999999999999 L 84.39999999999999 75.99999999999999 C 84.39999999999999 75.99999999999999 86.69999999999999 81.59999999999998 85.8 82.59999999999998 C 84.89999999999999 83.99999999999999 79.7 80.29999999999998 80.2 83.49999999999999 C 81.10000000000001 86.29999999999998 90.5 85.79999999999998 93.3 89.09999999999998 C 96.1 92.39999999999998 93.8 95.69999999999997 92.39999999999999 95.69999999999997 C 90.99999999999999 96.19999999999997 74.1 87.29999999999997 72.69999999999999 90.49999999999997 C 70.79999999999998 93.79999999999997 76.49999999999999 96.09999999999997 75.49999999999999 98.89999999999998 C 74.59999999999998 101.69999999999997 67.49999999999999 96.59999999999998 67.49999999999999 100.29999999999998 C 67.49999999999999 103.59999999999998 76.89999999999999 107.79999999999998 75.49999999999999 110.59999999999998 C 74.09999999999998 113.39999999999998 71.69999999999999 111.49999999999999 71.69999999999999 111.49999999999999 C 71.69999999999999 111.49999999999999 67.49999999999999 113.39999999999999 66.99999999999999 114.29999999999998 C 66.49999999999999 115.19999999999999 71.69999999999999 116.19999999999999 71.69999999999999 116.19999999999999 L 72.19999999999999 118.1 L 67.99999999999999 118.6 C 67.99999999999999 118.6 64.69999999999999 122.3 64.19999999999999 123.8 C 63.69999999999999 125.2 77.29999999999998 128 77.29999999999998 129.4 C 77.79999999999998 130.8 76.79999999999998 131.3 76.79999999999998 131.3 C 76.79999999999998 131.3 80.09999999999998 130.8 81.49999999999999 131.3 C 82.89999999999999 131.8 87.09999999999998 135 87.09999999999998 135 C 87.09999999999998 135 94.59999999999998 133.1 97.39999999999998 133.6 C 100.19999999999997 134.1 104.89999999999998 135.9 104.89999999999998 135.9 L 101.09999999999998 136.8 L 104.89999999999998 140.60000000000002 C 104.89999999999998 140.60000000000002 99.29999999999998 142.50000000000003 95.49999999999997 142.00000000000003 C 91.69999999999997 141.50000000000003 84.69999999999997 136.80000000000004 82.79999999999997 135.90000000000003 C 80.89999999999996 135.00000000000003 74.39999999999996 135.40000000000003 74.39999999999996 135.40000000000003 C 74.39999999999996 135.40000000000003 63.599999999999966 127.90000000000003 61.29999999999996 129.80000000000004 C 58.999999999999964 132.10000000000005 61.79999999999996 138.70000000000005 61.79999999999996 141.10000000000005 C 61.79999999999996 143.50000000000006 60.89999999999996 149.10000000000005 60.89999999999996 149.10000000000005 C 60.89999999999996 149.10000000000005 76.39999999999996 149.10000000000005 80.59999999999997 150.50000000000006 C 84.79999999999997 151.90000000000006 87.19999999999996 153.30000000000007 87.19999999999996 153.30000000000007 L 91.89999999999996 153.30000000000007 L 93.29999999999997 157.50000000000006 C 93.29999999999997 157.50000000000006 107.79999999999997 157.50000000000006 107.39999999999996 158.40000000000006 C 107.39999999999996 159.30000000000007 103.19999999999996 159.30000000000007 102.69999999999996 160.30000000000007 C 101.79999999999995 161.20000000000007 102.69999999999996 162.60000000000008 102.69999999999996 162.60000000000008 L 107.89999999999996 162.60000000000008 L 119.19999999999996 164.9000000000001 L 102.29999999999995 166.3000000000001 C 102.29999999999995 166.3000000000001 102.79999999999995 173.3000000000001 104.19999999999996 174.3000000000001 C 105.59999999999997 175.2000000000001 108.89999999999996 174.8000000000001 109.79999999999995 173.8000000000001 C 111.69999999999996 174.3000000000001 112.59999999999995 173.3000000000001 112.59999999999995 173.3000000000001 C 112.59999999999995 173.3000000000001 125.29999999999995 181.3000000000001 125.69999999999995 184.6000000000001 C 126.19999999999995 187.90000000000012 120.49999999999994 184.1000000000001 117.29999999999994 187.40000000000012 C 115.89999999999993 189.30000000000013 116.79999999999994 191.20000000000013 117.79999999999994 192.6000000000001 C 118.29999999999994 194.0000000000001 117.79999999999994 194.5000000000001 118.69999999999995 195.40000000000012 C 120.09999999999995 197.70000000000013 127.59999999999995 198.20000000000013 126.19999999999995 201.5000000000001 C 122.89999999999995 204.80000000000013 121.49999999999994 200.1000000000001 119.59999999999995 201.0000000000001 C 117.69999999999995 201.90000000000012 120.09999999999995 209.90000000000012 120.09999999999995 209.90000000000012 C 120.09999999999995 209.90000000000012 133.19999999999996 213.70000000000013 131.39999999999995 216.90000000000012 C 129.49999999999994 220.20000000000013 125.79999999999995 214.6000000000001 122.99999999999994 216.40000000000012 C 120.19999999999995 217.80000000000013 122.09999999999994 226.20000000000013 122.09999999999994 226.20000000000013 C 122.09999999999994 226.20000000000013 127.29999999999994 225.70000000000013 127.29999999999994 227.60000000000014 C 127.29999999999994 229.50000000000014 121.69999999999995 226.70000000000013 121.19999999999995 229.00000000000014 C 120.29999999999994 230.90000000000015 123.09999999999995 231.80000000000015 123.09999999999995 231.80000000000015 C 123.09999999999995 231.80000000000015 123.09999999999995 240.20000000000016 122.59999999999995 241.20000000000016 C 122.09999999999995 242.10000000000016 119.79999999999995 242.10000000000016 119.79999999999995 242.10000000000016 C 119.79999999999995 242.10000000000016 121.19999999999996 245.40000000000018 124.99999999999996 247.70000000000016 C 128.29999999999995 249.60000000000016 129.69999999999996 245.40000000000015 131.59999999999997 246.80000000000015 C 133.49999999999997 248.20000000000016 128.29999999999995 252.00000000000014 128.29999999999995 252.00000000000014 C 128.29999999999995 252.00000000000014 130.19999999999996 254.80000000000015 131.09999999999997 259.5000000000001 C 131.99999999999997 264.2000000000001 131.99999999999997 271.2000000000001 131.99999999999997 271.2000000000001 C 131.99999999999997 271.2000000000001 137.19999999999996 275.4000000000001 138.59999999999997 279.2000000000001 C 139.99999999999997 283.0000000000001 142.29999999999995 292.3000000000001 143.29999999999995 293.7000000000001 C 144.19999999999996 295.1000000000001 150.29999999999995 299.8000000000001 150.29999999999995 299.8000000000001 L 150.29999999999995 106.4 z" stroke-linecap="round" />
</g>
		<g transform="matrix(1 0 0 1 -50.01 79.5)"  >
<path style="stroke: none; stroke-width: 1; stroke-dasharray: none; stroke-linecap: butt; stroke-dashoffset: 0; stroke-linejoin: miter; stroke-miterlimit: 4; fill: rgb(0,0,0); fill-rule: nonzero; opacity: 1;" vector-effect="non-scaling-stroke"  transform=" translate(-99.99, -229.5)" d="M 98.4 215.2 C 98.4 215.2 107.30000000000001 217.5 108.7 219.39999999999998 C 110.10000000000001 221.7 110.10000000000001 230.2 110.10000000000001 230.2 C 110.10000000000001 230.2 106.30000000000001 231.1 100.7 235.79999999999998 C 95.1 240.49999999999997 90.9 243.79999999999998 90.9 243.79999999999998 C 90.9 243.79999999999998 89 237.2 90.4 234.39999999999998 C 91.80000000000001 231.59999999999997 93.2 230.2 93.2 230.2 C 93.2 230.2 91.3 226.89999999999998 92.7 223.2 C 93.8 219.4 98.4 215.2 98.4 215.2 z" stroke-linecap="round" />
</g>
		<g transform="matrix(1 0 0 1 -61.11 122.39)"  >
<path style="stroke: none; stroke-width: 1; stroke-dasharray: none; stroke-linecap: butt; stroke-dashoffset: 0; stroke-linejoin: miter; stroke-miterlimit: 4; fill: rgb(0,0,0); fill-rule: nonzero; opacity: 1;" vector-effect="non-scaling-stroke"  transform=" translate(-88.89, -272.39)" d="M 96.6 258.3 C 96.6 258.3 98.89999999999999 258.8 102.69999999999999 263 C 106.39999999999999 267.2 105.99999999999999 268.6 105.99999999999999 268.6 C 105.99999999999999 268.6 99.39999999999999 274.20000000000005 94.69999999999999 276.1 C 89.99999999999999 278 88.1 277 84.39999999999999 279.40000000000003 C 80.69999999999999 281.80000000000007 74.1 288.3 72.19999999999999 286.00000000000006 C 70.29999999999998 283.20000000000005 74.99999999999999 281.30000000000007 81.6 274.70000000000005 C 87.7 267.7 96.6 258.3 96.6 258.3 z" stroke-linecap="round" />
</g>
		<g transform="matrix(1 0 0 1 -99.6 78.75)"  >
<path style="stroke: none; stroke-width: 1; stroke-dasharray: none; stroke-linecap: butt; stroke-dashoffset: 0; stroke-linejoin: miter; stroke-miterlimit: 4; fill: rgb(0,0,0); fill-rule: nonzero; opacity: 1;" vector-effect="non-scaling-stroke"  transform=" translate(-50.4, -228.75)" d="M 100.8 191.3 C 100.8 191.3 91 174 84.89999999999999 171.60000000000002 C 78.8 169.3 69.89999999999999 174.40000000000003 68.99999999999999 173.00000000000003 C 68.09999999999998 171.60000000000002 72.29999999999998 169.30000000000004 72.29999999999998 169.30000000000004 L 65.29999999999998 165.50000000000003 C 65.29999999999998 165.50000000000003 64.79999999999998 167.40000000000003 61.499999999999986 168.30000000000004 C 58.19999999999999 169.20000000000005 49.29999999999998 166.90000000000003 49.29999999999998 166.90000000000003 L 62.399999999999984 173.00000000000003 C 62.399999999999984 173.00000000000003 55.399999999999984 174.40000000000003 51.09999999999998 177.20000000000002 C 46.89999999999998 180.00000000000003 44.09999999999998 182.8 44.09999999999998 182.8 L 36.59999999999998 184.20000000000002 C 36.59999999999998 184.20000000000002 37.09999999999998 187.50000000000003 41.29999999999998 187.50000000000003 C 45.499999999999986 187.50000000000003 64.29999999999998 186.10000000000002 64.29999999999998 186.10000000000002 C 64.29999999999998 186.10000000000002 71.29999999999998 190.3 69.49999999999999 191.70000000000002 C 67.59999999999998 193.10000000000002 57.29999999999998 191.20000000000002 57.29999999999998 191.20000000000002 L 63.399999999999984 195.4 L 69.49999999999999 197.70000000000002 C 69.49999999999999 197.70000000000002 65.69999999999999 201.50000000000003 60.59999999999999 202.4 C 55.399999999999984 203.3 47.89999999999999 200.5 47.89999999999999 200.5 C 47.89999999999999 200.5 45.599999999999994 203.8 43.69999999999999 206.1 C 41.79999999999999 208.4 20.29999999999999 221.1 20.29999999999999 221.1 C 20.29999999999999 221.1 21.19999999999999 224.9 27.79999999999999 224.4 C 34.39999999999999 223.9 49.79999999999999 217.8 51.19999999999999 218.3 C 52.59999999999999 218.8 54.499999999999986 219.70000000000002 54.499999999999986 219.70000000000002 C 54.499999999999986 219.70000000000002 55.899999999999984 214.50000000000003 57.29999999999998 213.60000000000002 C 58.69999999999998 212.70000000000002 62.899999999999984 213.10000000000002 62.899999999999984 213.10000000000002 L 74.19999999999999 204.70000000000002 C 74.19999999999999 204.70000000000002 77.49999999999999 215.00000000000003 66.19999999999999 222.50000000000003 C 54.89999999999999 230.00000000000003 45.59999999999999 226.30000000000004 45.59999999999999 226.30000000000004 C 45.59999999999999 226.30000000000004 36.19999999999999 236.10000000000005 31.099999999999987 238.50000000000003 C 25.999999999999986 240.9 11.899999999999988 247.90000000000003 13.799999999999986 248.80000000000004 C 14.299999999999986 249.30000000000004 16.099999999999987 249.70000000000005 17.099999999999987 249.30000000000004 C 19.399999999999988 248.40000000000003 21.299999999999986 245.10000000000005 24.599999999999987 244.10000000000005 C 29.299999999999986 242.70000000000005 33.999999999999986 244.60000000000005 33.999999999999986 244.60000000000005 L 38.19999999999999 242.70000000000005 L 51.29999999999999 243.60000000000005 L 55.99999999999999 246.90000000000006 L 64.39999999999999 245.00000000000006 C 64.39999999999999 245.00000000000006 63.89999999999999 251.60000000000005 59.69999999999999 254.40000000000006 C 55.499999999999986 257.20000000000005 51.69999999999999 257.20000000000005 51.69999999999999 257.20000000000005 C 51.69999999999999 257.20000000000005 33.3 278 21.1 284.1 C 8.4 289.7 0 292 0 292 C 0 292 20.6 288.2 28.6 284 C 42.2 276.5 49.2 270.4 56.7 265.2 C 64.2 260 79.7 257.2 79.7 257.2 C 79.7 257.2 79.2 246.89999999999998 80.2 243.1 C 81.10000000000001 239.4 86.8 235.1 86.8 235.1 C 86.8 235.1 85.89999999999999 229.9 85.89999999999999 227.6 C 85.89999999999999 225.29999999999998 88.19999999999999 224.79999999999998 88.19999999999999 224.79999999999998 L 89.1 220.1 C 89.1 220.1 95.19999999999999 211.2 95.19999999999999 207 C 95.19999999999999 202.8 94.29999999999998 198.1 94.29999999999998 198.1 C 94.29999999999998 198.1 92.89999999999998 191.5 95.19999999999999 191.5 C 97.5 191.5 100.8 191.3 100.8 191.3 z" stroke-linecap="round" />
</g>
		<g transform="matrix(1 0 0 1 -112.75 -98.9)"  >
<path style="stroke: none; stroke-width: 1; stroke-dasharray: none; stroke-linecap: butt; stroke-dashoffset: 0; stroke-linejoin: miter; stroke-miterlimit: 4; fill: rgb(0,0,0); fill-rule: nonzero; opacity: 1;" vector-effect="non-scaling-stroke"  transform=" translate(-37.25, -51.1)" d="M 58.6 75 C 58.6 75 55.300000000000004 75.5 51.1 78.3 C 46.9 81.1 46.9 85.8 42.7 85.8 C 38.50000000000001 85.8 30.9 74.1 28.1 72.7 C 24.8 71.3 22.900000000000002 74.10000000000001 22.900000000000002 74.10000000000001 L 13.500000000000002 59.10000000000001 L 18.700000000000003 56.30000000000001 C 18.700000000000003 56.30000000000001 25.300000000000004 63.80000000000001 27.6 63.30000000000001 C 30.400000000000002 63.30000000000001 33.7 62.80000000000001 33.7 62.80000000000001 C 33.7 62.80000000000001 38.900000000000006 75.9 42.1 76.4 C 45.4 76.9 42.6 64.7 41.2 61.400000000000006 C 39.800000000000004 58.60000000000001 30.900000000000002 57.60000000000001 30.900000000000002 57.60000000000001 L 22 40.3 C 22 40.3 24.8 44.099999999999994 27.2 45.9 C 29.5 47.8 40.8 45.4 43.599999999999994 46.4 C 45.89999999999999 47.3 50.199999999999996 48.3 50.199999999999996 48.3 C 50.199999999999996 48.3 50.199999999999996 44.099999999999994 48.8 40.3 C 47.4 36.5 41.8 33.3 41.3 30.9 C 40.8 28.599999999999998 41.3 25.7 39.9 23.9 C 38.5 22 32.9 16.4 32.9 16.4 C 32.9 16.4 41.3 20.2 43.2 22.5 C 45.5 25.3 46 30.5 47.900000000000006 34.2 C 50.2 38.400000000000006 61.00000000000001 42.6 61.00000000000001 42.6 C 61.00000000000001 42.6 57.20000000000001 48.2 56.300000000000004 50.6 C 54.900000000000006 52.9 58.2 55.800000000000004 58.2 55.800000000000004 C 58.2 55.800000000000004 55.400000000000006 60.50000000000001 54.900000000000006 63.800000000000004 C 54.8 68 58.6 75 58.6 75 z" stroke-linecap="round" />
</g>
</g>
</g>
</svg>
