<svg xmlns="http://www.w3.org/2000/svg" xmlns:xlink="http://www.w3.org/1999/xlink" version="1.1" width="1080" height="1080" viewBox="0 0 1080 1080" xml:space="preserve">
<defs>
</defs>
	<g transform="matrix(1 0 0 1 540 540)" id="b96cd8eb-eeb1-4032-bb21-e2d86ceca911"  >
<rect style="stroke: none; stroke-width: 1; stroke-dasharray: none; stroke-linecap: butt; stroke-dashoffset: 0; stroke-linejoin: miter; stroke-miterlimit: 4; fill: rgb(255,255,255); fill-rule: nonzero; opacity: 1; visibility: hidden;" vector-effect="non-scaling-stroke"  x="-540" y="-540" rx="0" ry="0" width="1080" height="1080" />
</g>
	<g transform="matrix(1 0 0 1 540 540)" id="c0dc972e-a9a5-4131-9ac2-eb0d204bcd1a"  >
</g>
	<g transform="matrix(3.6 0 0 3.6 540 540)"  >
<g style=""   >
		<g transform="matrix(1 0 0 1 -1.4 -84.5)"  >
<ellipse style="stroke: none; stroke-width: 1; stroke-dasharray: none; stroke-linecap: butt; stroke-dashoffset: 0; stroke-linejoin: miter; stroke-miterlimit: 4; fill: rgb(255,255,255); fill-rule: nonzero; opacity: 1;" vector-effect="non-scaling-stroke"  cx="0" cy="0" rx="35" ry="64.4" />
</g>
	<g transform="matrix(1 0 0 1 -0.15 19.1)"  >
<path style="stroke: none; stroke-width: 1; stroke-dasharray: none; stroke-linecap: butt; stroke-dashoffset: 0; stroke-linejoin: miter; stroke-miterlimit: 4; fill: rgb(255,255,255); fill-rule: nonzero; opacity: 1;" vector-effect="non-scaling-stroke"  transform=" translate(-149.85, -169.1)" d="M 299.3 212.1 C 299.3 212.1 271.8 206 271.8 190.6 C 271.3 175.2 280.7 168.2 280.7 168.2 C 280.7 168.2 279.8 166.29999999999998 280.2 164 C 280.7 161.7 288.09999999999997 161.7 288.09999999999997 161.7 C 288.09999999999997 161.7 287.2 159.39999999999998 287.59999999999997 157 C 287.59999999999997 155.1 290.9 152.8 290.9 152.8 C 290.9 152.8 286.7 152.3 285.79999999999995 150.9 C 284.4 149.5 284.4 147.20000000000002 284.4 147.20000000000002 C 284.4 147.20000000000002 254.09999999999997 151.4 255.89999999999998 137.4 C 257.7 123.4 277.4 124.30000000000001 277.4 124.30000000000001 L 276.5 116.80000000000001 C 276.5 116.80000000000001 267.2 116.30000000000001 264.8 114.00000000000001 C 263.90000000000003 113.10000000000001 255.9 91.10000000000002 246.10000000000002 73.9 C 234.90000000000003 54.300000000000004 222.3 39.400000000000006 222.3 39.400000000000006 L 213 42.2 L 214.4 61.300000000000004 C 214.4 61.300000000000004 227.5 64.60000000000001 230.70000000000002 74.80000000000001 C 235.4 89.70000000000002 221.8 136.4 205.00000000000003 142.5 C 191.00000000000003 147.6 175.10000000000002 143.4 175.10000000000002 143.4 L 174.60000000000002 152.70000000000002 L 191.40000000000003 166.70000000000002 L 177.90000000000003 173.20000000000002 L 173.70000000000005 166.20000000000002 L 168.60000000000005 174.60000000000002 L 162.50000000000006 174.60000000000002 L 157.80000000000007 180.20000000000002 L 149.90000000000006 181.10000000000002 L 142.00000000000006 179.70000000000002 L 137.30000000000007 174.10000000000002 L 131.20000000000007 174.10000000000002 L 125.60000000000008 165.70000000000002 L 121.90000000000008 173.20000000000002 L 109.30000000000008 167.10000000000002 L 126.10000000000008 153.10000000000002 L 125.60000000000008 143.8 C 125.60000000000008 143.8 109.70000000000007 148.5 95.70000000000007 142.9 C 78.90000000000008 136.8 65.40000000000008 90.2 70.00000000000007 75.2 C 73.30000000000007 64.9 86.30000000000007 61.7 86.30000000000007 61.7 L 87.20000000000007 43 L 77.90000000000008 40.2 C 77.90000000000008 40.2 65.30000000000008 55.1 54.10000000000008 74.7 C 44.30000000000008 91.5 36.40000000000008 113.4 35.40000000000008 114.80000000000001 C 33.10000000000008 116.70000000000002 23.700000000000077 117.60000000000001 23.700000000000077 117.60000000000001 L 22.80000000000008 125.10000000000001 C 22.80000000000008 125.10000000000001 42.40000000000008 124.60000000000001 44.30000000000008 138.20000000000002 C 46.20000000000008 152.20000000000002 15.800000000000082 148.00000000000003 15.800000000000082 148.00000000000003 C 15.800000000000082 148.00000000000003 15.800000000000082 148.90000000000003 14.400000000000082 150.80000000000004 C 13.000000000000082 152.20000000000005 9.300000000000082 152.70000000000005 9.300000000000082 152.70000000000005 C 9.300000000000082 152.70000000000005 12.600000000000083 154.60000000000005 12.600000000000083 156.90000000000003 C 12.600000000000083 158.80000000000004 12.100000000000083 161.60000000000002 12.100000000000083 161.60000000000002 C 12.100000000000083 161.60000000000002 19.600000000000083 161.60000000000002 20.000000000000085 163.90000000000003 C 20.500000000000085 166.20000000000005 19.500000000000085 168.10000000000002 19.500000000000085 168.10000000000002 C 19.500000000000085 168.10000000000002 28.400000000000084 175.10000000000002 28.400000000000084 190.50000000000003 C 27.900000000000084 205.40000000000003 0.40000000000008384 212.00000000000003 0.40000000000008384 212.00000000000003 L 29.300000000000082 207.30000000000004 L 38.20000000000008 219.00000000000003 L 32.60000000000008 224.10000000000002 L 71.30000000000008 220.40000000000003 C 71.30000000000008 220.40000000000003 60.60000000000008 229.70000000000005 56.400000000000084 231.10000000000002 C 52.20000000000008 232.50000000000003 46.10000000000008 233.40000000000003 46.10000000000008 233.40000000000003 C 46.10000000000008 233.40000000000003 50.80000000000008 238.10000000000002 46.60000000000008 242.70000000000005 C 42.90000000000008 246.40000000000003 34.50000000000008 250.20000000000005 34.50000000000008 250.20000000000005 L 62.50000000000008 238.50000000000006 L 82.60000000000008 238.50000000000006 C 82.60000000000008 238.50000000000006 70.00000000000009 244.60000000000005 66.70000000000007 247.40000000000006 C 63.40000000000008 250.70000000000007 60.60000000000007 257.20000000000005 60.60000000000007 257.20000000000005 L 48.00000000000007 257.70000000000005 C 48.00000000000007 257.70000000000005 63.40000000000007 264.70000000000005 64.30000000000007 271.20000000000005 C 64.80000000000007 277.70000000000005 63.40000000000007 281.00000000000006 63.40000000000007 281.00000000000006 L 73.20000000000007 288.50000000000006 C 73.20000000000007 288.50000000000006 68.50000000000007 275.90000000000003 70.40000000000008 273.1000000000001 C 72.30000000000008 270.30000000000007 81.10000000000008 275.00000000000006 85.30000000000008 280.1000000000001 C 91.80000000000008 287.1000000000001 92.30000000000008 298.80000000000007 92.30000000000008 298.80000000000007 C 92.30000000000008 298.80000000000007 93.20000000000009 292.70000000000005 91.80000000000008 283.9000000000001 C 90.40000000000008 273.2000000000001 76.90000000000008 269.4000000000001 72.20000000000007 265.7000000000001 C 68.00000000000007 262.4000000000001 68.50000000000007 256.4000000000001 70.80000000000007 251.7000000000001 C 75.00000000000007 244.2000000000001 87.60000000000007 238.6000000000001 87.60000000000007 238.6000000000001 L 88.50000000000007 242.8000000000001 L 93.20000000000007 239.1000000000001 C 93.20000000000007 239.1000000000001 102.10000000000008 252.6000000000001 101.60000000000008 257.3000000000001 C 101.60000000000008 262.0000000000001 99.30000000000008 265.2000000000001 99.70000000000007 269.0000000000001 C 100.20000000000007 272.7000000000001 105.80000000000007 279.7000000000001 105.80000000000007 279.7000000000001 C 105.80000000000007 279.7000000000001 103.90000000000006 274.6000000000001 104.40000000000006 269.0000000000001 C 104.90000000000006 263.4000000000001 106.70000000000006 257.3000000000001 112.80000000000007 257.8000000000001 C 120.30000000000007 258.3000000000001 133.80000000000007 269.90000000000015 137.10000000000008 276.5000000000001 C 140.4000000000001 283.0000000000001 140.4000000000001 295.2000000000001 141.80000000000007 295.2000000000001 C 143.20000000000005 295.2000000000001 145.10000000000008 282.6000000000001 146.50000000000006 280.3000000000001 C 147.90000000000006 278.0000000000001 149.80000000000007 278.0000000000001 149.80000000000007 278.0000000000001 C 149.80000000000007 278.0000000000001 151.70000000000007 278.0000000000001 153.10000000000008 280.3000000000001 C 154.50000000000009 282.60000000000014 156.4000000000001 295.2000000000001 157.80000000000007 295.2000000000001 C 159.20000000000005 295.2000000000001 159.20000000000007 283.1000000000001 162.50000000000006 276.5000000000001 C 165.80000000000007 270.0000000000001 179.30000000000007 258.3000000000001 186.80000000000007 257.8000000000001 C 192.40000000000006 257.3000000000001 194.70000000000007 263.40000000000015 195.20000000000007 269.0000000000001 C 195.20000000000007 274.60000000000014 193.80000000000007 279.7000000000001 193.80000000000007 279.7000000000001 C 193.80000000000007 279.7000000000001 199.40000000000006 273.2000000000001 199.90000000000006 269.0000000000001 C 200.40000000000006 265.3000000000001 198.50000000000006 262.0000000000001 198.00000000000006 257.3000000000001 C 198.00000000000006 252.60000000000014 206.40000000000006 239.10000000000014 206.40000000000006 239.10000000000014 L 211.10000000000005 242.80000000000013 L 212.00000000000006 238.60000000000014 C 212.00000000000006 238.60000000000014 224.10000000000005 244.20000000000013 228.80000000000007 251.70000000000013 C 231.60000000000008 255.90000000000012 231.60000000000008 262.40000000000015 227.40000000000006 265.70000000000016 C 222.70000000000007 269.40000000000015 209.20000000000007 273.20000000000016 207.80000000000007 283.90000000000015 C 206.40000000000006 292.8000000000001 207.30000000000007 298.8000000000001 207.30000000000007 298.8000000000001 C 207.30000000000007 298.8000000000001 207.80000000000007 287.10000000000014 214.30000000000007 280.10000000000014 C 219.00000000000006 275.0000000000001 227.40000000000006 270.3000000000001 229.20000000000007 273.10000000000014 C 231.00000000000009 275.90000000000015 226.40000000000006 288.5000000000001 226.40000000000006 288.5000000000001 L 236.20000000000007 281.0000000000001 C 236.20000000000007 281.0000000000001 234.30000000000007 277.7000000000001 235.30000000000007 271.2000000000001 C 235.80000000000007 264.7000000000001 251.60000000000008 257.7000000000001 251.60000000000008 257.7000000000001 L 239.00000000000009 257.7000000000001 C 239.00000000000009 257.7000000000001 235.70000000000007 250.7000000000001 232.9000000000001 247.9000000000001 C 229.60000000000008 244.60000000000008 217.00000000000009 239.00000000000009 217.00000000000009 239.00000000000009 L 237.10000000000008 239.00000000000009 L 265.1000000000001 250.70000000000007 C 265.1000000000001 250.70000000000007 256.7000000000001 247.00000000000009 253.00000000000009 243.20000000000007 C 248.8000000000001 239.00000000000009 253.50000000000009 233.90000000000006 253.50000000000009 233.90000000000006 C 253.50000000000009 233.90000000000006 247.4000000000001 233.00000000000006 243.20000000000007 231.60000000000005 C 239.00000000000009 229.70000000000005 228.30000000000007 220.40000000000006 228.30000000000007 220.40000000000006 L 267.00000000000006 224.10000000000005 L 261.40000000000003 219.00000000000006 L 270.3 207.30000000000007 L 299.3 212.1 z M 79.1 212.5 L 46.39999999999999 215.8 L 39.39999999999999 206.5 L 81.89999999999999 207.9 L 79.1 212.5 z M 142.1 262.9 C 141.2 270.79999999999995 141.6 275 141.6 275 C 141.6 275 136 268 129.5 261.9 C 121.1 254.89999999999998 115 254.39999999999998 115 254.39999999999998 C 115 254.39999999999998 122.5 250.7 131.3 250.7 C 140.10000000000002 250.7 144.8 252.1 144.8 252.1 C 144.8 252.1 142.5 257.3 142.1 262.9 z M 171 262.5 C 164 268.1 158.9 275.6 158.9 275.6 C 158.9 275.6 159.4 271.40000000000003 158.4 263.5 C 157.9 257.4 155.6 252.8 155.6 252.8 C 155.6 252.8 160.29999999999998 251.4 169.1 251.4 C 177.9 251.4 185.4 255.1 185.4 255.1 C 185.4 255.1 179.9 255 171 262.5 z M 254.1 215.8 L 221 212.5 L 218.2 208.3 L 260.7 206.9 L 254.1 215.8 z" stroke-linecap="round" />
</g>
</g>
</g>
</svg>
